<?xml version="1.0" encoding="UTF-8" standalone="no"?>
<!-- Created with Inkscape (http://www.inkscape.org/) -->

<svg
   xmlns:dc="http://purl.org/dc/elements/1.1/"
   xmlns:cc="http://creativecommons.org/ns#"
   xmlns:rdf="http://www.w3.org/1999/02/22-rdf-syntax-ns#"
   xmlns:svg="http://www.w3.org/2000/svg"
   xmlns="http://www.w3.org/2000/svg"
   xmlns:sodipodi="http://sodipodi.sourceforge.net/DTD/sodipodi-0.dtd"
   xmlns:inkscape="http://www.inkscape.org/namespaces/inkscape"
   width="45.961906mm"
   height="45.961906mm"
   viewBox="0 0 162.85715 162.85715"
   id="svg2"
   version="1.1"
   inkscape:version="0.91 r13725"
   sodipodi:docname="transform-axes.svg">
  <defs
     id="defs4" />
  <sodipodi:namedview
     id="base"
     pagecolor="#ffffff"
     bordercolor="#666666"
     borderopacity="1.0"
     inkscape:pageopacity="0.0"
     inkscape:pageshadow="2"
     inkscape:zoom="1.4"
     inkscape:cx="179.22876"
     inkscape:cy="-81.48093"
     inkscape:document-units="px"
     inkscape:current-layer="layer1"
     showgrid="false"
     fit-margin-top="0"
     fit-margin-left="0"
     fit-margin-right="0"
     fit-margin-bottom="0"
     inkscape:window-width="1680"
     inkscape:window-height="997"
     inkscape:window-x="0"
     inkscape:window-y="31"
     inkscape:window-maximized="1" />
  <metadata
     id="metadata7">
    <rdf:RDF>
      <cc:Work
         rdf:about="">
        <dc:format>image/svg+xml</dc:format>
        <dc:type
           rdf:resource="http://purl.org/dc/dcmitype/StillImage" />
        <dc:title />
      </cc:Work>
    </rdf:RDF>
  </metadata>
  <g
     inkscape:label="Layer 1"
     inkscape:groupmode="layer"
     id="layer1"
     transform="translate(-96.428574,-54.505062)">
    <g
       transform="scale(0.90859795,1.1005968)"
       style="font-style:normal;font-weight:normal;font-size:94.02993011px;line-height:125%;font-family:sans-serif;letter-spacing:0px;word-spacing:0px;fill:#000000;fill-opacity:1;stroke:none;stroke-width:1px;stroke-linecap:butt;stroke-linejoin:miter;stroke-opacity:1"
       id="text3338">
      <path
         d="m 168.01119,92.898134 -4.45357,0 q 0.64279,-3.443479 -0.91826,-5.234088 -1.51513,-1.790609 -5.14226,-1.790609 -4.72904,0 -7.20835,2.617044 -2.43339,2.571131 -3.76487,9.228524 l -1.23965,6.290085 13.63617,0 -1.01008,4.9127 -13.63618,0 -7.80522,39.02609 10.83548,0 -0.96417,4.86679 -27.36418,0 0.96417,-4.86679 8.0807,0 7.80522,-39.02609 -8.0807,0 1.01009,-4.9127 8.0807,0 1.19374,-6.106433 q 1.65287,-8.172523 6.7033,-12.350611 5.09635,-4.178088 13.31479,-4.178088 3.07617,0 6.01461,0.550957 2.98434,0.550956 5.78504,1.698783 l -1.83652,9.274436 z"
         style="font-style:italic"
         id="path3408" />
      <path
         d="m 177.51519,167.46093 q -10.14678,-5.00452 -13.68209,-15.84 -3.48939,-10.8814 -0.22956,-27.18053 3.25982,-16.34505 11.11096,-27.180526 7.85113,-10.881393 20.01809,-15.885916 l -0.87235,4.499479 q -8.0807,4.866784 -12.94748,13.728003 -4.82087,8.81531 -7.98887,24.83896 -3.21392,15.97774 -1.92835,24.83896 1.33148,8.81531 7.43791,13.68209 l -0.91826,4.49948 z"
         style="font-style:italic"
         id="path3410" />
      <path
         d="m 220.53572,123.0171 13.03931,-14.09531 -6.56557,0 1.01009,-4.9127 18.77843,0 -1.01008,4.9127 -6.47374,0 -16.66644,18.04383 11.01913,20.98226 6.38192,0 -0.96418,4.86679 -22.54331,0 0.96418,-4.86679 6.19826,0 -7.66748,-14.60035 -13.59026,14.60035 6.336,0 -0.96418,4.86679 -18.54887,0 0.96417,-4.86679 6.47374,0 17.17149,-18.54887 -10.74366,-20.47722 -6.01461,0 1.01009,-4.9127 21.8087,0 -1.01009,4.9127 -5.83096,0 7.43792,14.09531 z"
         style="font-style:italic"
         id="path3412" />
      <path
         d="m 243.99729,167.46093 0.91826,-4.49948 q 8.03479,-4.86678 12.90157,-13.68209 4.86678,-8.86122 8.0807,-24.83896 3.168,-16.02365 1.83652,-24.83896 -1.33148,-8.861219 -7.392,-13.728003 l 0.87235,-4.499479 q 10.19269,5.004523 13.728,15.885916 3.5353,10.835476 0.27548,27.180526 -3.25983,16.29913 -11.15687,27.18053 -7.85114,10.83548 -20.06401,15.84 z"
         style="font-style:italic"
         id="path3414" />
    </g>
  </g>
</svg>
