<?xml version="1.0" encoding="UTF-8" standalone="no"?>
<!-- Created with Inkscape (http://www.inkscape.org/) -->

<svg
   xmlns:svg="http://www.w3.org/2000/svg"
   xmlns="http://www.w3.org/2000/svg"
   xmlns:xlink="http://www.w3.org/1999/xlink"
   version="1.1"
   width="744.09448"
   height="1052.3622"
   id="svg2">
  <defs
     id="defs4">
    <linearGradient
       id="linearGradient3592">
      <stop
         id="stop3594"
         style="stop-color:#808000;stop-opacity:1"
         offset="0" />
      <stop
         id="stop3596"
         style="stop-color:#d5b500;stop-opacity:1"
         offset="1" />
    </linearGradient>
    <linearGradient
       x1="99.514503"
       y1="469.99054"
       x2="469.05692"
       y2="274.73383"
       id="linearGradient3598"
       xlink:href="#linearGradient3592"
       gradientUnits="userSpaceOnUse"
       gradientTransform="matrix(0.66928276,0,0,1.0009073,32.983595,-0.33782907)" />
  </defs>
  <g
     id="layer1">
    <rect
       width="288.74768"
       height="194.46199"
       ry="11.43894"
       x="99.911865"
       y="275.1312"
       id="rect2816"
       style="fill:url(#linearGradient3598);fill-opacity:1;stroke:#00ffff;stroke-width:0.79473251;stroke-miterlimit:4;stroke-dasharray:none" />
    <rect
       width="156.30772"
       height="69.246452"
       ry="0"
       x="162.44313"
       y="289.67322"
       id="rect3600"
       style="fill:#ffffff;fill-opacity:1;stroke:#000000;stroke-width:0.72172314;stroke-miterlimit:4;stroke-dasharray:none" />
    <path
       d="m 172.42253,336.27631 c 1.94007,-0.79848 4.23451,-1.02049 6.32555,-1.5763 1.09439,-0.2909 2.01927,-0.86089 3.16277,-1.05086 3.59946,0 0.0452,0.24769 2.37209,-0.52544 0.23573,-0.0783 0.60432,0.12385 0.79069,0 0.18637,-0.12384 -0.18637,-0.40158 0,-0.52543 0.18637,-0.12384 0.55495,0.0783 0.79069,0 0.33339,-0.11077 0.52713,-0.35028 0.7907,-0.52543 0.52713,-0.35029 0.99927,-0.7414 1.58138,-1.05086 0.74206,-0.39449 1.70012,-0.60433 2.37209,-1.05087 0.41673,-0.27692 0.37395,-0.77394 0.79069,-1.05086 0.41673,-0.27693 1.02229,-0.40159 1.58139,-0.52543 0.25004,-0.0554 0.60433,0.12384 0.79069,0 0.18637,-0.12385 -0.18636,-0.40159 0,-0.52543 0.18637,-0.12385 0.57139,0.0971 0.7907,0 0.62027,-0.2748 0.985,-0.75364 1.58138,-1.05087 0.55485,-1.20967 1.55655,-0.25446 2.37209,-0.52544 0.33338,-0.11076 0.52713,-0.35028 0.79069,-0.52543 0.26356,-0.17514 0.624,-0.30389 0.79069,-0.52543 0.11788,-0.15665 -0.11787,-0.36878 0,-0.52543 0.16669,-0.22154 0.52714,-0.35029 0.7907,-0.52543 0.26356,-0.17515 0.4573,-0.41467 0.79069,-0.52544 0.47148,-0.15665 1.10991,0.15666 1.58139,0 1.95412,-0.64928 -0.27293,-0.52543 1.58139,-0.52543 0.26356,0 0.60432,0.12385 0.79069,0 0.18637,-0.12385 -0.26356,-0.52543 0,-0.52543 0.37274,0 0.45731,0.41466 0.7907,0.52543 0.23574,0.0783 0.60432,-0.12385 0.79069,0 0.18637,0.12385 -0.18637,0.40159 0,0.52543 0.37273,0.2477 1.20865,-0.24769 1.58139,0 0.18636,0.12385 -0.18637,0.40159 0,0.52544 0.37273,0.24769 1.20865,-0.2477 1.58139,0 0.18636,0.12384 -0.18637,0.40158 0,0.52543 0.18636,0.12384 0.60432,-0.12385 0.79069,0 0,1.40115 -0.26356,-0.17515 0.79069,0.52543 0.18637,0.12384 -0.18636,0.40159 0,0.52543 0.18637,0.12385 0.60433,-0.12384 0.7907,0 0.18636,0.12385 -0.18637,0.40159 0,0.52543 0.18636,0.12385 0.60432,-0.12384 0.79069,0 0.18637,0.12385 -0.18637,0.40159 0,0.52544 0.18637,0.12384 0.60433,-0.12385 0.79069,0 0.18637,0.12384 -0.18636,0.40158 0,0.52543 0.18637,0.12385 0.60433,-0.12385 0.7907,0 0.18637,0.12385 -0.18637,0.40159 0,0.52544 0.18637,0.12384 0.60433,-0.12385 0.79069,0 0.18637,0.12384 -0.18636,0.40158 0,0.52543 0.18637,0.12384 0.52714,0 0.7907,0 0,0.17514 -0.11788,0.36877 0,0.52543 0.10497,0.1395 2.16214,1.50654 2.37208,1.5763 0.23574,0.0783 0.60433,-0.12385 0.79069,0 0.18637,0.12384 -0.18636,0.40158 0,0.52543 0.37274,0.24769 1.20866,-0.2477 1.58139,0 0.18637,0.12384 -0.18637,0.40159 0,0.52543 7.6e-4,5e-4 2.3685,-6.1e-4 2.37208,0 0.35361,0.0783 0.45731,0.41466 0.7907,0.52543 0.2404,0.0799 2.61678,0 3.16277,0 0.31257,0 3.61578,0.1122 3.95347,0 0.33339,-0.11077 0.45731,-0.41466 0.7907,-0.52543 0.23574,-0.0783 0.54065,0.0554 0.79069,0 0.55911,-0.12384 1.02229,-0.40159 1.58139,-0.52543 0.25003,-0.0554 0.55496,0.0783 0.79069,0 0.84998,-0.28242 1.52212,-0.76846 2.37208,-1.05087 1.49095,-0.49538 3.25322,-0.55548 4.74417,-1.05086 0.84997,-0.28241 1.52211,-0.76846 2.37208,-1.05086 0.74548,-0.2477 1.65739,-0.24048 2.37208,-0.52544 0.63924,-0.25487 0.99928,-0.7414 1.58139,-1.05087 0.92445,-0.95352 2.72401,-0.96354 3.95347,-1.57629 0.59638,-0.29723 0.98501,-0.75364 1.58139,-1.05087 0.47147,-0.23498 1.07602,-0.32393 1.58138,-0.52543 1.62976,-0.6498 3.094,-1.47511 4.74417,-2.10173 1.02339,-0.38861 2.13939,-0.66225 3.16278,-1.05086 1.65017,-0.62662 3.04422,-1.53691 4.74417,-2.10173 0.74547,-0.24769 1.59822,-0.31974 2.37208,-0.52543 0.54719,-0.14546 1.02227,-0.40159 1.58139,-0.52544 0.71161,-0.15762 1.66045,0.15763 2.37208,0 1.1182,-0.24769 2.10851,-0.70057 3.16277,-1.05086 1.58139,-0.52543 3.16278,-1.05086 4.74417,-1.5763 0.52712,-0.17514 1.00963,-0.43045 1.58138,-0.52543 3.59946,0 0.0452,0.24769 2.37209,-0.52543 0.63255,-0.21018 1.73952,0.21017 2.37208,0 2.6224,-1.74264 -0.74548,0.24769 1.58139,-0.52544 0.33338,-0.11077 0.4573,-0.41465 0.79069,-0.52543 0.23573,-0.0783 0.60433,0.12385 0.79069,0 0.18637,-0.12384 -0.18636,-0.40158 0,-0.52543 0.0977,-0.0649 2.66694,0 3.16278,0 0.52712,0 1.0813,0.11077 1.58139,0 0.3536,-0.0783 0.4573,-0.41466 0.79069,-0.52543 0.0414,-0.0138 2.33072,-0.0138 2.37208,0 0.33339,0.11077 0.45731,0.41466 0.7907,0.52543 0.23573,0.0783 0.52712,0 0.79069,0 0.26356,0 0.52713,0 0.7907,0 0.79069,0 1.58138,0 2.37208,0 0.26356,0 0.79069,-0.17515 0.79069,0 0,0.17514 -0.79069,0.17514 -0.79069,0 0,-0.17515 0.60432,-0.12384 0.79069,0 0.18637,0.12385 -0.26356,0.52543 0,0.52543 0.37274,0 0.45731,-0.41466 0.7907,-0.52543 0.24063,-0.0799 2.01598,0 2.37208,0 0.26356,0 0.60432,-0.12384 0.79069,0 0.18637,0.12385 0,0.35029 0,0.52543"
       id="path3602"
       style="fill:none;stroke:#ff0000;stroke-width:3.8650465;stroke-linecap:round;stroke-linejoin:round;stroke-miterlimit:4;stroke-opacity:1;stroke-dasharray:none" />
    <path
       d="m 238.84081,291.61457 0,64.62817"
       id="path3606"
       style="fill:none;stroke:#000000;stroke-width:0.74327821;stroke-linecap:butt;stroke-linejoin:miter;stroke-miterlimit:4;stroke-opacity:1;stroke-dasharray:0.7432782, 4.45966918;stroke-dashoffset:0" />
    <rect
       width="156.30772"
       height="69.246452"
       ry="0"
       x="161.1889"
       y="375.35101"
       id="rect3600-8"
       style="opacity:0.42560556;fill:#ffffff;fill-opacity:1;stroke:#000000;stroke-width:0.72172314;stroke-miterlimit:4;stroke-dasharray:none" />
    <path
       d="m 171.1683,421.9541 c 1.94007,-0.79848 4.23451,-1.02049 6.32555,-1.5763 1.09439,-0.2909 2.01927,-0.86089 3.16277,-1.05086 3.59946,0 0.0452,0.24769 2.37209,-0.52544 0.23573,-0.0783 0.60432,0.12385 0.79069,0 0.18637,-0.12384 -0.18637,-0.40158 0,-0.52543 0.18637,-0.12384 0.55495,0.0783 0.79069,0 0.33339,-0.11077 0.52713,-0.35028 0.7907,-0.52543 0.52713,-0.35029 0.99927,-0.7414 1.58138,-1.05086 0.74206,-0.39449 1.70012,-0.60433 2.37209,-1.05087 0.41673,-0.27692 0.37395,-0.77394 0.79069,-1.05086 0.41673,-0.27693 1.02229,-0.40159 1.58139,-0.52543 0.25004,-0.0554 0.60433,0.12384 0.79069,0 0.18637,-0.12385 -0.18636,-0.40159 0,-0.52543 0.18637,-0.12385 0.57139,0.0971 0.7907,0 0.62027,-0.2748 0.985,-0.75364 1.58138,-1.05087 0.55485,-1.20967 1.55655,-0.25446 2.37209,-0.52544 0.33338,-0.11076 0.52713,-0.35028 0.79069,-0.52543 0.26356,-0.17514 0.624,-0.30389 0.79069,-0.52543 0.11788,-0.15665 -0.11787,-0.36878 0,-0.52543 0.16669,-0.22154 0.52714,-0.35029 0.7907,-0.52543 0.26356,-0.17515 0.4573,-0.41467 0.79069,-0.52544 0.47148,-0.15665 1.10991,0.15666 1.58139,0 1.95412,-0.64928 -0.27293,-0.52543 1.58139,-0.52543 0.26356,0 0.60432,0.12385 0.79069,0 0.18637,-0.12385 -0.26356,-0.52543 0,-0.52543 0.37274,0 0.45731,0.41466 0.7907,0.52543 0.23574,0.0783 0.60432,-0.12385 0.79069,0 0.18637,0.12385 -0.18637,0.40159 0,0.52543 0.37273,0.2477 1.20865,-0.24769 1.58139,0 0.18636,0.12385 -0.18637,0.40159 0,0.52544 0.37273,0.24769 1.20865,-0.2477 1.58139,0 0.18636,0.12384 -0.18637,0.40158 0,0.52543 0.18636,0.12384 0.60432,-0.12385 0.79069,0 0,1.40115 -0.26356,-0.17515 0.79069,0.52543 0.18637,0.12384 -0.18636,0.40159 0,0.52543 0.18637,0.12385 0.60433,-0.12384 0.7907,0 0.18636,0.12385 -0.18637,0.40159 0,0.52543 0.18636,0.12385 0.60432,-0.12384 0.79069,0 0.18637,0.12385 -0.18637,0.40159 0,0.52544 0.18637,0.12384 0.60433,-0.12385 0.79069,0 0.18637,0.12384 -0.18636,0.40158 0,0.52543 0.18637,0.12385 0.60433,-0.12385 0.7907,0 0.18637,0.12385 -0.18637,0.40159 0,0.52544 0.18637,0.12384 0.60433,-0.12385 0.79069,0 0.18637,0.12384 -0.18636,0.40158 0,0.52543 0.18637,0.12384 0.52714,0 0.7907,0 0,0.17514 -0.11788,0.36877 0,0.52543 0.10497,0.1395 2.16214,1.50654 2.37208,1.5763 0.23574,0.0783 0.60433,-0.12385 0.79069,0 0.18637,0.12384 -0.18636,0.40158 0,0.52543 0.37274,0.24769 1.20866,-0.2477 1.58139,0 0.18637,0.12384 -0.18637,0.40159 0,0.52543 7.6e-4,5e-4 2.3685,-6.1e-4 2.37208,0 0.35361,0.0783 0.45731,0.41466 0.7907,0.52543 0.2404,0.0799 2.61678,0 3.16277,0 0.31257,0 3.61578,0.1122 3.95347,0 0.33339,-0.11077 0.45731,-0.41466 0.7907,-0.52543 0.23574,-0.0783 0.54065,0.0554 0.79069,0 0.55911,-0.12384 1.02229,-0.40159 1.58139,-0.52543 0.25003,-0.0554 0.55496,0.0783 0.79069,0 0.84998,-0.28242 1.52212,-0.76846 2.37208,-1.05087 1.49095,-0.49538 3.25322,-0.55548 4.74417,-1.05086 0.84997,-0.28241 1.52211,-0.76846 2.37208,-1.05086 0.74548,-0.2477 1.65739,-0.24048 2.37208,-0.52544 0.63924,-0.25487 0.99928,-0.7414 1.58139,-1.05087 0.92445,-0.95352 2.72401,-0.96354 3.95347,-1.57629 0.59638,-0.29723 0.98501,-0.75364 1.58139,-1.05087 0.47147,-0.23498 1.07602,-0.32393 1.58138,-0.52543 1.62976,-0.6498 3.094,-1.47511 4.74417,-2.10173 1.02339,-0.38861 2.13939,-0.66225 3.16278,-1.05086 1.65017,-0.62662 3.04422,-1.53691 4.74417,-2.10173 0.74547,-0.24769 1.59822,-0.31974 2.37208,-0.52543 0.54719,-0.14546 1.02227,-0.40159 1.58139,-0.52544 0.71161,-0.15762 1.66045,0.15763 2.37208,0 1.1182,-0.24769 2.10851,-0.70057 3.16277,-1.05086 1.58139,-0.52543 3.16278,-1.05086 4.74417,-1.5763 0.52712,-0.17514 1.00963,-0.43045 1.58138,-0.52543 3.59946,0 0.0452,0.24769 2.37209,-0.52543 0.63255,-0.21018 1.73952,0.21017 2.37208,0 2.6224,-1.74264 -0.74548,0.24769 1.58139,-0.52544 0.33338,-0.11077 0.4573,-0.41465 0.79069,-0.52543 0.23573,-0.0783 0.60433,0.12385 0.79069,0 0.18637,-0.12384 -0.18636,-0.40158 0,-0.52543 0.0977,-0.0649 2.66694,0 3.16278,0 0.52712,0 1.0813,0.11077 1.58139,0 0.3536,-0.0783 0.4573,-0.41466 0.79069,-0.52543 0.0414,-0.0138 2.33072,-0.0138 2.37208,0 0.33339,0.11077 0.45731,0.41466 0.7907,0.52543 0.23573,0.0783 0.52712,0 0.79069,0 0.26356,0 0.52713,0 0.7907,0 0.79069,0 1.58138,0 2.37208,0 0.26356,0 0.79069,-0.17515 0.79069,0 0,0.17514 -0.79069,0.17514 -0.79069,0 0,-0.17515 0.60432,-0.12384 0.79069,0 0.18637,0.12385 -0.26356,0.52543 0,0.52543 0.37274,0 0.45731,-0.41466 0.7907,-0.52543 0.24063,-0.0799 2.01598,0 2.37208,0 0.26356,0 0.60432,-0.12384 0.79069,0 0.18637,0.12385 0,0.35029 0,0.52543"
       id="path3602-4"
       style="opacity:0.42560556;fill:none;stroke:#808080;stroke-width:3.8650465;stroke-linecap:round;stroke-linejoin:round;stroke-miterlimit:4;stroke-opacity:1;stroke-dasharray:none" />
    <path
       d="m 237.58658,377.29236 0,64.62817"
       id="path3606-3"
       style="opacity:0.42560556;fill:none;stroke:#000000;stroke-width:0.74327821;stroke-linecap:butt;stroke-linejoin:miter;stroke-miterlimit:4;stroke-opacity:1;stroke-dasharray:0.7432782, 4.45966918;stroke-dashoffset:0" />
  </g>
</svg>
